<?xml version="1.0" ?><svg height="32" id="svg2" version="1.1" viewBox="0 0 32 32" width="32" xml:space="preserve" xmlns="http://www.w3.org/2000/svg" xmlns:cc="http://creativecommons.org/ns#" xmlns:dc="http://purl.org/dc/elements/1.1/" xmlns:inkscape="http://www.inkscape.org/namespaces/inkscape" xmlns:rdf="http://www.w3.org/1999/02/22-rdf-syntax-ns#" xmlns:sodipodi="http://sodipodi.sourceforge.net/DTD/sodipodi-0.dtd" xmlns:svg="http://www.w3.org/2000/svg"><defs id="defs6"/><g id="g10" transform="matrix(1.3333333,0,0,-1.3333333,0,32)"><path d="m 12.045891,18.34959 a 6.6653094,6.6653094 0 0 0 4.78449,-2.01429 6.6653094,6.6653094 0 0 0 -0.12336,-9.4253809 6.6653094,6.6653094 0 0 0 -8.1661901,-0.879117 l 0.063,-0.06119 -2.61529,-0.937108 1.00812,2.314824 a 6.6653094,6.6653094 0 0 0 0.40831,9.1113319 6.6653094,6.6653094 0 0 0 4.6408901,1.89092 z" id="path957" style="fill:none;stroke:#333333;stroke-width:0.81202555;stroke-linecap:round;stroke-linejoin:round;stroke-miterlimit:4;stroke-dasharray:none;stroke-opacity:1"/><path d="m 10.477911,12.4871 c -0.46104,2.06025 3.25893,2.73796 3.19316,0.11507 -0.0474,-0.416 -0.23013,-0.86448 -1.23416,-1.71073 -0.31047,-0.26465 -0.49628,-0.553 -0.51717,-0.68791" id="path959" style="fill:none;stroke:#333333;stroke-width:0.81202555;stroke-linecap:round;stroke-linejoin:round;stroke-miterlimit:4;stroke-dasharray:none;stroke-opacity:1"/><circle cx="11.8441" cy="-8.9755735" id="path961" r="0.37980196" style="fill:#333333;fill-opacity:1;stroke:none;stroke-width:0.96669716;stroke-linecap:round;stroke-linejoin:round;stroke-miterlimit:4;stroke-dasharray:none;stroke-opacity:1" transform="scale(1,-1)"/></g></svg>